<mxfile host="www.draw.io" modified="2019-11-26T06:30:01.067Z" agent="Mozilla/5.0 (X11; Linux x86_64) AppleWebKit/537.36 (KHTML, like Gecko) Chrome/76.0.3809.87 Safari/537.36" etag="IxmHFOBr_gVV8yGXoM6a" version="12.3.0" type="github" pages="1">
  <diagram id="OJ1-L1X5FSKiwOX5k5X4" name="Page-1">
    <mxGraphModel dx="813" dy="458" grid="1" gridSize="10" guides="1" tooltips="1" connect="1" arrows="1" fold="1" page="1" pageScale="1" pageWidth="827" pageHeight="1169" math="0" shadow="0">
      <root>
        <mxCell id="0"/>
        <mxCell id="1" parent="0"/>
        <mxCell id="HJIu8QdjYec44as9i2so-5" value="团队" style="rounded=0;whiteSpace=wrap;html=1;align=left;horizontal=1;verticalAlign=top;comic=1;" vertex="1" parent="1">
          <mxGeometry x="130" y="200" width="580" height="120" as="geometry"/>
        </mxCell>
        <mxCell id="HJIu8QdjYec44as9i2so-6" value="成员管理" style="rounded=0;whiteSpace=wrap;html=1;comic=1;" vertex="1" parent="1">
          <mxGeometry x="165" y="210" width="75" height="25" as="geometry"/>
        </mxCell>
        <mxCell id="HJIu8QdjYec44as9i2so-8" value="代码仓库" style="rounded=0;whiteSpace=wrap;html=1;comic=1;" vertex="1" parent="1">
          <mxGeometry x="165" y="285" width="75" height="25" as="geometry"/>
        </mxCell>
        <mxCell id="HJIu8QdjYec44as9i2so-11" value="项目管理" style="rounded=0;whiteSpace=wrap;html=1;comic=1;" vertex="1" parent="1">
          <mxGeometry x="165" y="250" width="75" height="25" as="geometry"/>
        </mxCell>
        <mxCell id="HJIu8QdjYec44as9i2so-13" value="" style="group;comic=1;" vertex="1" connectable="0" parent="1">
          <mxGeometry x="260" y="223" width="120" height="75" as="geometry"/>
        </mxCell>
        <mxCell id="HJIu8QdjYec44as9i2so-12" value="" style="rounded=0;whiteSpace=wrap;html=1;align=left;comic=1;" vertex="1" parent="HJIu8QdjYec44as9i2so-13">
          <mxGeometry width="120" height="75" as="geometry"/>
        </mxCell>
        <mxCell id="HJIu8QdjYec44as9i2so-4" value="发布策略" style="rounded=0;whiteSpace=wrap;html=1;comic=1;" vertex="1" parent="HJIu8QdjYec44as9i2so-13">
          <mxGeometry x="9.230769230769232" y="45" width="73.84615384615385" height="25" as="geometry"/>
        </mxCell>
        <mxCell id="HJIu8QdjYec44as9i2so-2" value="CI" style="rounded=0;whiteSpace=wrap;html=1;comic=1;" vertex="1" parent="HJIu8QdjYec44as9i2so-13">
          <mxGeometry x="9.230769230769232" y="5" width="46.15384615384615" height="25" as="geometry"/>
        </mxCell>
        <mxCell id="HJIu8QdjYec44as9i2so-3" value="CD" style="rounded=0;whiteSpace=wrap;html=1;comic=1;" vertex="1" parent="HJIu8QdjYec44as9i2so-13">
          <mxGeometry x="60" y="5" width="46.15384615384615" height="25" as="geometry"/>
        </mxCell>
        <mxCell id="HJIu8QdjYec44as9i2so-17" value="" style="rounded=0;whiteSpace=wrap;html=1;align=left;comic=1;" vertex="1" parent="1">
          <mxGeometry x="400" y="223" width="101" height="75" as="geometry"/>
        </mxCell>
        <mxCell id="HJIu8QdjYec44as9i2so-21" value="" style="rounded=0;whiteSpace=wrap;html=1;align=left;comic=1;" vertex="1" parent="1">
          <mxGeometry x="521" y="223" width="179" height="75" as="geometry"/>
        </mxCell>
        <mxCell id="HJIu8QdjYec44as9i2so-14" value="应用监控" style="rounded=0;whiteSpace=wrap;html=1;comic=1;" vertex="1" parent="1">
          <mxGeometry x="530" y="267.5" width="75" height="25" as="geometry"/>
        </mxCell>
        <mxCell id="HJIu8QdjYec44as9i2so-15" value="环境监控" style="rounded=0;whiteSpace=wrap;html=1;comic=1;" vertex="1" parent="1">
          <mxGeometry x="530" y="227.5" width="75" height="25" as="geometry"/>
        </mxCell>
        <mxCell id="HJIu8QdjYec44as9i2so-7" value="生成物" style="rounded=0;whiteSpace=wrap;html=1;comic=1;" vertex="1" parent="1">
          <mxGeometry x="415" y="227.5" width="75" height="25" as="geometry"/>
        </mxCell>
        <mxCell id="HJIu8QdjYec44as9i2so-9" value="应用中心" style="rounded=0;whiteSpace=wrap;html=1;comic=1;" vertex="1" parent="1">
          <mxGeometry x="415" y="267.5" width="75" height="25" as="geometry"/>
        </mxCell>
        <mxCell id="HJIu8QdjYec44as9i2so-24" value="报表统计" style="rounded=0;whiteSpace=wrap;html=1;comic=1;" vertex="1" parent="1">
          <mxGeometry x="620" y="227.5" width="75" height="25" as="geometry"/>
        </mxCell>
        <mxCell id="HJIu8QdjYec44as9i2so-25" value="调度平台" style="rounded=0;whiteSpace=wrap;html=1;align=left;horizontal=1;verticalAlign=top;comic=1;" vertex="1" parent="1">
          <mxGeometry x="130" y="330" width="580" height="100" as="geometry"/>
        </mxCell>
        <mxCell id="HJIu8QdjYec44as9i2so-26" value="自建用户系统" style="rounded=0;whiteSpace=wrap;html=1;comic=1;" vertex="1" parent="1">
          <mxGeometry x="200" y="340" width="75" height="25" as="geometry"/>
        </mxCell>
        <mxCell id="HJIu8QdjYec44as9i2so-27" value="SSO" style="rounded=0;whiteSpace=wrap;html=1;comic=1;" vertex="1" parent="1">
          <mxGeometry x="202.5" y="390" width="75" height="25" as="geometry"/>
        </mxCell>
        <mxCell id="HJIu8QdjYec44as9i2so-29" value="" style="rounded=0;whiteSpace=wrap;html=1;align=left;comic=1;" vertex="1" parent="1">
          <mxGeometry x="32" y="220" width="80" height="210" as="geometry"/>
        </mxCell>
        <mxCell id="HJIu8QdjYec44as9i2so-30" value="企业&lt;br&gt;用户系统" style="rounded=0;whiteSpace=wrap;html=1;comic=1;" vertex="1" parent="1">
          <mxGeometry x="34.5" y="390" width="75" height="25" as="geometry"/>
        </mxCell>
        <mxCell id="HJIu8QdjYec44as9i2so-31" value="" style="endArrow=classic;html=1;exitX=0;exitY=0.5;exitDx=0;exitDy=0;entryX=1;entryY=0.5;entryDx=0;entryDy=0;comic=1;" edge="1" parent="1" source="HJIu8QdjYec44as9i2so-27" target="HJIu8QdjYec44as9i2so-30">
          <mxGeometry width="50" height="50" relative="1" as="geometry">
            <mxPoint x="30" y="480" as="sourcePoint"/>
            <mxPoint x="80" y="430" as="targetPoint"/>
          </mxGeometry>
        </mxCell>
        <mxCell id="HJIu8QdjYec44as9i2so-32" value="应用编排" style="rounded=0;whiteSpace=wrap;html=1;comic=1;" vertex="1" parent="1">
          <mxGeometry x="320" y="340" width="75" height="25" as="geometry"/>
        </mxCell>
        <mxCell id="HJIu8QdjYec44as9i2so-33" value="弹性伸缩" style="rounded=0;whiteSpace=wrap;html=1;comic=1;" vertex="1" parent="1">
          <mxGeometry x="320" y="390" width="75" height="25" as="geometry"/>
        </mxCell>
        <mxCell id="HJIu8QdjYec44as9i2so-34" value="资源调度" style="rounded=0;whiteSpace=wrap;html=1;comic=1;" vertex="1" parent="1">
          <mxGeometry x="426" y="340" width="75" height="25" as="geometry"/>
        </mxCell>
        <mxCell id="HJIu8QdjYec44as9i2so-35" value="自定义监控" style="rounded=0;whiteSpace=wrap;html=1;comic=1;" vertex="1" parent="1">
          <mxGeometry x="426" y="390" width="75" height="25" as="geometry"/>
        </mxCell>
        <mxCell id="HJIu8QdjYec44as9i2so-36" value="流水线工具" style="rounded=0;whiteSpace=wrap;html=1;comic=1;" vertex="1" parent="1">
          <mxGeometry x="535.5" y="340" width="75" height="25" as="geometry"/>
        </mxCell>
        <mxCell id="HJIu8QdjYec44as9i2so-37" value="基础设施" style="rounded=0;whiteSpace=wrap;html=1;align=left;horizontal=1;verticalAlign=top;comic=1;" vertex="1" parent="1">
          <mxGeometry x="130" y="440" width="580" height="50" as="geometry"/>
        </mxCell>
        <mxCell id="HJIu8QdjYec44as9i2so-38" value="容器化环境" style="rounded=0;whiteSpace=wrap;html=1;comic=1;" vertex="1" parent="1">
          <mxGeometry x="200" y="450" width="75" height="25" as="geometry"/>
        </mxCell>
        <mxCell id="HJIu8QdjYec44as9i2so-39" value="存储服务" style="rounded=0;whiteSpace=wrap;html=1;comic=1;" vertex="1" parent="1">
          <mxGeometry x="426" y="450" width="75" height="25" as="geometry"/>
        </mxCell>
        <mxCell id="HJIu8QdjYec44as9i2so-40" value="容器网络" style="rounded=0;whiteSpace=wrap;html=1;comic=1;" vertex="1" parent="1">
          <mxGeometry x="320" y="450" width="75" height="25" as="geometry"/>
        </mxCell>
        <mxCell id="HJIu8QdjYec44as9i2so-41" value="监控和日志集群" style="rounded=0;whiteSpace=wrap;html=1;comic=1;" vertex="1" parent="1">
          <mxGeometry x="532" y="450" width="98" height="25" as="geometry"/>
        </mxCell>
        <mxCell id="HJIu8QdjYec44as9i2so-42" value="开源组件集成" style="rounded=0;whiteSpace=wrap;html=1;comic=1;" vertex="1" parent="1">
          <mxGeometry x="620" y="340" width="75" height="70" as="geometry"/>
        </mxCell>
        <mxCell id="HJIu8QdjYec44as9i2so-43" value="" style="rounded=0;whiteSpace=wrap;html=1;align=left;comic=1;" vertex="1" parent="1">
          <mxGeometry x="730" y="290" width="80" height="200" as="geometry"/>
        </mxCell>
        <mxCell id="HJIu8QdjYec44as9i2so-44" value="harbor" style="rounded=0;whiteSpace=wrap;html=1;comic=1;" vertex="1" parent="1">
          <mxGeometry x="732" y="424" width="75" height="25" as="geometry"/>
        </mxCell>
        <mxCell id="HJIu8QdjYec44as9i2so-45" value="rancher" style="rounded=0;whiteSpace=wrap;html=1;comic=1;" vertex="1" parent="1">
          <mxGeometry x="732" y="391" width="75" height="25" as="geometry"/>
        </mxCell>
        <mxCell id="HJIu8QdjYec44as9i2so-46" value="gitea" style="rounded=0;whiteSpace=wrap;html=1;comic=1;" vertex="1" parent="1">
          <mxGeometry x="732" y="324" width="75" height="25" as="geometry"/>
        </mxCell>
        <mxCell id="HJIu8QdjYec44as9i2so-47" value="drone" style="rounded=0;whiteSpace=wrap;html=1;comic=1;" vertex="1" parent="1">
          <mxGeometry x="732" y="357" width="75" height="25" as="geometry"/>
        </mxCell>
        <mxCell id="HJIu8QdjYec44as9i2so-48" value="" style="endArrow=classic;html=1;shape=flexArrow;width=19.428571428571427;endSize=2.525714285714286;" edge="1" parent="1">
          <mxGeometry width="50" height="50" relative="1" as="geometry">
            <mxPoint x="698.5" y="374.5" as="sourcePoint"/>
            <mxPoint x="728.5" y="374.5" as="targetPoint"/>
          </mxGeometry>
        </mxCell>
      </root>
    </mxGraphModel>
  </diagram>
</mxfile>
